<mxfile host="app.diagrams.net" modified="2021-03-05T19:56:35.879Z" agent="5.0 (Windows NT 10.0; Win64; x64) AppleWebKit/537.36 (KHTML, like Gecko) Chrome/88.0.4324.190 Safari/537.36" etag="FfigLHvAS8g9SV6Yq-Ws" version="14.4.4" type="github">
  <diagram id="KNThbymLGsVphi79HAY6" name="Page-1">
    <mxGraphModel dx="1021" dy="620" grid="1" gridSize="10" guides="1" tooltips="1" connect="1" arrows="1" fold="1" page="1" pageScale="1" pageWidth="827" pageHeight="1169" math="0" shadow="0">
      <root>
        <mxCell id="0" />
        <mxCell id="1" parent="0" />
        <mxCell id="_W2Wu4x4kJNPoguewZKQ-1" value="" style="rounded=0;whiteSpace=wrap;html=1;strokeColor=#6c8ebf;gradientColor=#7ea6e0;fillColor=#12FCAE;" vertex="1" parent="1">
          <mxGeometry x="30" y="120" width="780" height="560" as="geometry" />
        </mxCell>
        <mxCell id="_W2Wu4x4kJNPoguewZKQ-2" value="Computer" style="rounded=1;whiteSpace=wrap;html=1;" vertex="1" parent="1">
          <mxGeometry x="150" y="60" width="80" height="30" as="geometry" />
        </mxCell>
        <mxCell id="_W2Wu4x4kJNPoguewZKQ-6" value="" style="rounded=1;whiteSpace=wrap;html=1;strokeColor=#36393d;fillColor=#FFFFFF;" vertex="1" parent="1">
          <mxGeometry x="120" y="240" width="600" height="350" as="geometry" />
        </mxCell>
        <mxCell id="_W2Wu4x4kJNPoguewZKQ-8" value="&lt;font style=&quot;font-size: 17px&quot;&gt;QUESTION&lt;/font&gt;" style="rounded=1;whiteSpace=wrap;html=1;fillColor=#12FCAE;" vertex="1" parent="1">
          <mxGeometry x="190" y="310" width="470" height="70" as="geometry" />
        </mxCell>
        <mxCell id="_W2Wu4x4kJNPoguewZKQ-9" value="" style="rounded=1;whiteSpace=wrap;html=1;fillColor=#12FCAE;" vertex="1" parent="1">
          <mxGeometry x="320" y="400" width="210" height="90" as="geometry" />
        </mxCell>
        <mxCell id="_W2Wu4x4kJNPoguewZKQ-10" value="&lt;font style=&quot;font-size: 15px&quot;&gt;ANSWER&lt;br&gt;A&lt;br&gt;B&lt;br&gt;C&lt;br&gt;D&lt;/font&gt;" style="text;html=1;strokeColor=none;fillColor=none;align=center;verticalAlign=middle;whiteSpace=wrap;rounded=0;" vertex="1" parent="1">
          <mxGeometry x="386.25" y="405" width="77.5" height="80" as="geometry" />
        </mxCell>
      </root>
    </mxGraphModel>
  </diagram>
</mxfile>
